<svg width="24" height="24" viewBox="0 0 24 24" fill="none" xmlns="http://www.w3.org/2000/svg">
    <circle cx="12" cy="12" r="10" stroke="#13123A" stroke-width="1.5"/>
    <path d="M2 12H22" stroke="#13123A" stroke-width="1.5"/>
    <path d="M12 2L12 22" stroke="#13123A" stroke-width="1.5"/>
    <path d="M18.463 17.3308C19.1865 17.9472 20.2639 17.7123 20.7286 16.8833C21.5383 15.4391 22 13.7735 22 12C22 10.2265 21.5383 8.5609 20.7286 7.1167C20.2638 6.28771 19.1865 6.05288 18.463 6.6692C16.9559 7.95315 16 9.86496 16 12C16 14.1351 16.9559 16.0469 18.463 17.3308Z" stroke="#13123A" stroke-width="1.5"/>
    <path d="M5.53699 17.3308C4.81353 17.9472 3.73615 17.7123 3.27137 16.8833C2.46166 15.4391 2 13.7735 2 12C2 10.2265 2.46166 8.5609 3.27137 7.1167C3.73615 6.28771 4.81354 6.05288 5.53699 6.6692C7.04413 7.95315 8 9.86496 8 12C8 14.1351 7.04413 16.0469 5.53699 17.3308Z" stroke="#13123A" stroke-width="1.5"/>
</svg>
